Results
version=1
nRows=12
nColumns=43
inDegrees=yes
endheader
time	pelvis_tilt	pelvis_list	pelvis_rotation	pelvis_tx	pelvis_ty	pelvis_tz	hip_flexion_r	hip_adduction_r	hip_rotation_r	knee_angle_r	ankle_angle_r	subtalar_angle_r	mtp_angle_r	hip_flexion_l	hip_adduction_l	hip_rotation_l	knee_angle_l	ankle_angle_l	subtalar_angle_l	mtp_angle_l	lumbar_extension	lumbar_bending	lumbar_rotation	neck_flexion	neck_lateral_bending	neck_rotation	arm_flex_r	arm_add_r	arm_rot_r	elbow_flex_r	pro_sup_r	wrist_flex_r	wrist_dev_r	hand_finger_flex_r	arm_flex_l	arm_add_l	arm_rot_l	elbow_flex_l	pro_sup_l	wrist_flex_l	wrist_dev_l	hand_finger_flex_l
      0.50000000	      3.16702360	     -1.21164179	      3.94397681	      0.12879354	      0.90634392	      0.38598251	      7.54086313	      3.94157138	     -5.23569049	    -23.57828350	     19.88884903	    -12.12399948	      0.00000000	      7.57139331	     -6.68754468	     -2.52200082	    -63.70838216	      3.85886680	     -8.18323143	      0.00000000	     -3.97749420	      0.17156639	     -3.50052909	    -12.56542617	     -1.47658533	     -1.85034447	    -14.49750657	    -10.62748309	     -1.55716274	     48.08370413	    -67.44021894	     -5.34422120	    -20.90157767	     -6.77768881	     -6.83843481	    -13.46146263	     -4.43043255	     71.54578681	    -58.50680073	    -18.18675891	     -2.31302624	     30.67675385
      0.50500000	      3.20738103	     -1.57486623	      3.72970023	      0.13499277	      0.90713599	      0.38710559	      6.73958478	      4.50434198	     -4.98497616	    -22.86865090	     19.94998832	    -12.18347350	      0.00000000	      8.42684415	     -7.16477612	     -2.75545035	    -63.79625942	      4.55618901	     -7.65203634	      0.00000000	     -4.03070164	      0.49958264	     -2.86330896	    -12.66819140	     -1.41755733	     -2.24890108	    -14.37074643	    -10.85171022	     -1.48594808	     48.67302980	    -67.47012082	     -4.94623465	    -20.65558182	     -6.61109305	     -7.11971283	    -13.26783491	     -4.24654156	     70.59195317	    -58.22089000	    -17.88168467	     -2.32993850	     30.50651490
      0.51000000	      3.17108190	     -1.50336091	      3.57583115	      0.14106484	      0.90772449	      0.38764269	      6.23366425	      4.46202083	     -4.96629352	    -22.68019098	     19.95221180	    -12.17792800	      0.00000000	      9.24473388	     -7.05850834	     -2.92271486	    -63.74203464	      4.70968421	     -7.53571973	      0.00000000	     -4.06284617	      0.35043584	     -2.70050778	    -12.62625555	     -1.31710645	     -2.36101908	    -13.93707953	    -10.94154087	     -1.49864490	     49.05869510	    -67.43367946	     -4.85573198	    -20.54481019	     -6.56429667	     -7.72032037	    -13.25435164	     -4.22328748	     69.82461938	    -58.20221993	    -17.87803525	     -2.41342873	     30.46518807
      0.51500000	      3.21392819	     -1.45041151	      3.51391276	      0.14712560	      0.90848169	      0.38773911	      5.56404684	      4.43531399	     -4.98965243	    -22.32629133	     20.22491892	    -11.95424610	      0.00000000	      9.77497689	     -6.89442329	     -2.95733530	    -63.33859090	      6.11425431	     -6.63083848	      0.00000000	     -4.14847072	      0.31496514	     -2.15185101	    -12.75720232	     -1.28552073	     -2.66468779	    -13.88960064	    -11.20319913	     -1.53214526	     49.84392067	    -67.34078630	     -4.33273181	    -19.94627602	     -6.25096679	     -7.67421022	    -12.77137810	     -4.24477728	     68.41958742	    -57.76659011	    -17.71876135	     -2.62876604	     30.22618517
      0.52000000	      3.24590799	     -1.40463254	      3.48547523	      0.15327847	      0.90916891	      0.38769383	      4.94550125	      4.29812333	     -5.59406452	    -22.07630058	     20.61695265	    -10.84257192	      0.00000000	     10.38142561	     -6.84351096	     -3.11011559	    -62.89254511	      7.36544226	     -5.03649269	      0.00000000	     -4.23518650	      0.26930197	     -1.82570289	    -12.78520682	     -1.38227843	     -3.21657592	    -13.62592240	    -11.29581728	     -1.93174596	     50.25406790	    -67.84366364	     -3.63011793	    -19.73558267	     -5.90890760	     -7.96203566	    -12.65195228	     -3.95743118	     67.43913506	    -56.18639697	    -17.46533245	     -2.70634633	     29.60594869
      0.52500000	      3.14192349	     -1.44116855	      3.31609768	      0.15918854	      0.90942322	      0.38813558	      4.49400324	      4.36328815	     -5.62838862	    -21.78255025	     20.67308814	    -10.81964878	      0.00000000	     11.13892076	     -6.79314413	     -3.19167943	    -62.29229903	      7.48149236	     -5.05279286	      0.00000000	     -4.18445512	      0.25814655	     -1.53708154	    -12.73538016	     -1.28023574	     -3.28808010	    -13.21486057	    -11.46863601	     -1.95054967	     50.62132159	    -67.84255664	     -3.60083731	    -19.69219607	     -5.88856433	     -8.45727607	    -12.54214997	     -4.06260185	     66.78166666	    -56.12866586	    -17.44772328	     -2.78550297	     29.56082173
      0.53000000	      3.10455136	     -1.53619744	      3.19784943	      0.16499165	      0.90987247	      0.38835383	      3.61512522	      4.54875947	     -5.41005238	    -20.77551853	     20.80589062	    -10.68127555	      0.00000000	     11.93680465	     -6.88941597	     -3.45211838	    -61.88952720	      8.05185125	     -5.06382409	      0.00000000	     -4.20727043	      0.35628857	     -1.10753987	    -12.76229347	     -1.22462829	     -3.36089340	    -12.99718992	    -11.79677904	     -1.90968398	     51.29770547	    -67.89480720	     -3.53358743	    -19.64238689	     -5.83414287	     -8.62667914	    -12.03591108	     -4.42552277	     65.62900106	    -55.88965973	    -17.24678610	     -2.87576397	     29.46673204
      0.53500000	      3.45381974	     -1.82612637	      3.21537566	      0.17106050	      0.91129706	      0.38840392	      2.14324964	      4.98623670	     -5.17377623	    -19.44081985	     20.73656108	    -10.64202994	      0.00000000	     12.16124941	     -7.05349059	     -3.19130658	    -61.11145019	      8.94401400	     -4.50053754	      0.00000000	     -4.65447046	      0.74778184	     -0.87796148	    -12.87689456	     -1.37972198	     -3.51014789	    -12.81085787	    -12.16845006	     -1.88000709	     52.19561503	    -68.11795800	     -3.31386487	    -19.66978396	     -5.68917615	     -8.81128205	    -11.61690678	     -4.69309701	     64.30743232	    -55.26316774	    -16.79561971	     -2.85436326	     29.28660773
      0.54000000	      3.39498905	     -1.63416339	      3.17636502	      0.17710314	      0.91148478	      0.38830287	      1.33672512	      4.81915782	     -5.10838717	    -18.62729590	     20.68993735	    -10.65846473	      0.00000000	     12.88529769	     -6.79738078	     -3.43951792	    -60.40708733	      9.67640287	     -4.43910329	      0.00000000	     -4.62505609	      0.50771000	     -0.70234379	    -12.86569285	     -1.33734255	     -3.66418293	    -12.50202599	    -12.38871882	     -1.87107595	     52.57435440	    -68.19850606	     -3.20475558	    -19.65710950	     -5.62274288	     -9.22427556	    -11.42758245	     -4.77030677	     63.24955684	    -55.03905366	    -16.66734588	     -2.93473343	     29.18058526
      0.54500000	      3.62565218	     -1.61587513	      3.09946779	      0.18322567	      0.91237703	      0.38852172	      0.36846688	      4.82775302	     -5.18263423	    -18.09054007	     20.76537298	    -10.57951201	      0.00000000	     13.12866808	     -6.68031910	     -3.47762976	    -59.38801529	     10.85497079	     -4.31991416	      0.00000000	     -4.91298595	      0.47485319	     -0.38418476	    -12.91766362	     -1.29178000	     -3.80959262	    -12.25667640	    -12.65290294	     -1.83355354	     53.24089247	    -68.31676457	     -3.02256071	    -19.62034458	     -5.51176915	     -9.38304447	    -11.13089959	     -5.00312127	     61.84706835	    -54.71847579	    -16.49324846	     -3.08582449	     29.01464195
      0.55000000	      3.54917866	     -1.64027234	      2.91389088	      0.18914999	      0.91232036	      0.38923093	     -0.05010270	      4.86536725	     -5.22976638	    -17.92069444	     20.79003901	    -10.52480323	      0.00000000	     13.76081689	     -6.62083400	     -3.45537853	    -58.53244511	     11.02823090	     -4.22480035	      0.00000000	     -4.90987183	      0.39132622	     -0.16881517	    -12.90990128	     -1.18670648	     -3.91044792	    -11.80674218	    -12.74014151	     -1.92304007	     53.62100551	    -68.32540870	     -2.94908486	    -19.57499633	     -5.47124292	     -9.95924269	    -11.18257424	     -5.06583839	     61.17104826	    -54.66385954	    -16.48350093	     -3.15345862	     28.96738542
      0.55500000	      3.59342357	     -1.51689262	      2.91007191	      0.19509673	      0.91258748	      0.38907611	     -0.96647263	      4.75626554	     -5.16379412	    -17.07983022	     20.91975147	    -10.19395009	      0.00000000	     14.17160067	     -6.48549277	     -3.81566589	    -57.58996746	     12.01899817	     -4.04427549	      0.00000000	     -5.00300138	      0.27576588	      0.13218151	    -12.95184551	     -1.12322565	     -4.04130827	    -11.66960306	    -13.05946220	     -2.02177340	     54.35381616	    -68.42517912	     -2.72020169	    -19.46580833	     -5.33971326	     -9.96874283	    -10.75225030	     -5.44923888	     59.61520468	    -54.43278410	    -16.31056954	     -3.30694247	     28.81159259
